<?xml version="1.0" encoding="UTF-8"?>
<svg id="Ebene_3" data-name="Ebene 3" xmlns="http://www.w3.org/2000/svg" version="1.1" viewBox="0 0 692.1 232.5">
  <defs>
    <style>
      .cls-1 {
        fill: #fff;
        stroke-width: 0px;
      }
    </style>
  </defs>
  <polygon class="cls-1" points="42.3 0 179.8 0 179.8 31.8 84.6 31.8 84.6 105.7 42.3 105.7 42.3 0"/>
  <polygon class="cls-1" points="84.6 105.7 169.1 105.7 169.1 137.5 84.6 137.5 84.6 105.7"/>
  <polygon class="cls-1" points="0 148 42.3 148 42.3 232.5 0 232.5 0 148"/>
  <g>
    <g>
      <path class="cls-1" d="M639,80.7c3.3,0,5.7-2.4,5.7-5.7s-2.3-5.7-5.7-5.7-5.7,2.4-5.7,5.7,2.3,5.7,5.7,5.7Z"/>
      <path class="cls-1" d="M621,80.7c3.3,0,5.7-2.4,5.7-5.7s-2.3-5.7-5.7-5.7-5.7,2.4-5.7,5.7,2.3,5.7,5.7,5.7Z"/>
    </g>
    <g>
      <path class="cls-1" d="M232.5,113v-28.4h11.9v29.6c0,10.3,3.3,13.9,9.2,13.9s9.4-3.6,9.4-13.9v-29.6h11.5v28.4c0,17.7-7.2,25.5-20.9,25.5s-21.1-7.7-21.1-25.5Z"/>
      <path class="cls-1" d="M285.6,84.6h12.2l13.8,26.3,5.2,11.6h.3c-.6-5.6-1.5-13-1.5-19.2v-18.7h11.4v52.9h-12.2l-13.8-26.4-5.2-11.5h-.3c.6,5.8,1.5,12.9,1.5,19.1v18.8h-11.4v-52.9Z"/>
      <path class="cls-1" d="M338.9,84.6h11.9v52.9h-11.9v-52.9Z"/>
      <path class="cls-1" d="M356.9,84.6h12.6l6.4,24.6c1.6,5.8,2.6,11.1,4.2,16.9h.3c1.6-5.8,2.7-11.2,4.2-16.9l6.2-24.6h12.2l-15.9,52.9h-14.4l-16-52.9Z"/>
      <path class="cls-1" d="M409.1,84.6h33.1v10h-21.2v10.6h18v10h-18v12.2h22v10h-33.9v-52.9Z"/>
      <path class="cls-1" d="M495.2,137.5l-12-21.1c5.6-2.6,9.4-7.5,9.4-15.2,0-12.6-9.2-16.5-20.4-16.5h-19v52.9h11.9v-19h6.6l10.1,19h13.4ZM465.2,94.1h6.1c6.3,0,9.7,1.7,9.7,7s-3.4,7.9-9.7,7.9h-6.1v-14.9Z"/>
      <path class="cls-1" d="M498.8,130.8l6.9-8.2c3.8,3.3,8.6,5.5,13,5.5s7.4-2,7.4-5.1-3-4.4-7.6-6.3l-6.9-2.9c-5.5-2.2-10.7-6.7-10.7-14.4s7.8-15.8,18.8-15.8,12.5,2.4,17,6.9l-6,7.5c-3.5-2.7-6.8-4.1-11-4.1s-6.7,1.7-6.7,4.7,3.5,4.4,8.1,6.3l6.7,2.7c6.5,2.6,10.5,6.9,10.5,14.4s-7.3,16.4-19.9,16.4-14.2-2.6-19.6-7.6Z"/>
      <path class="cls-1" d="M547.7,84.6h11.9v52.9h-11.9v-52.9Z"/>
      <path class="cls-1" d="M582.4,94.7h-14.5v-10h41v10h-14.5v42.8h-11.9v-42.8Z"/>
      <path class="cls-1" d="M641.3,137.5h12.6l-16.6-52.9h-14.3l-16.6,52.9h12.2l3.3-12.6h16.1l3.3,12.6ZM624.4,115.6l1.3-4.9c1.5-5.3,2.9-11.5,4.2-17h.3c1.4,5.5,2.8,11.8,4.3,17l1.3,4.9h-11.3Z"/>
      <path class="cls-1" d="M665.6,94.7h-14.5v-10h41v10h-14.5v42.8h-11.9v-42.8Z"/>
    </g>
  </g>
  <g>
    <path class="cls-1" d="M232.5,0h33.4v10h-21.4v12.3h18.3v10h-18.3v20.6h-11.9V0Z"/>
    <path class="cls-1" d="M317.4,52.9l-12-21.1c5.6-2.6,9.4-7.5,9.4-15.2,0-12.6-9.2-16.5-20.4-16.5h-19v52.9h11.9v-19h6.6l10.1,19h13.4ZM287.4,9.5h6.1c6.3,0,9.7,1.7,9.7,7s-3.4,7.9-9.7,7.9h-6.1v-14.9Z"/>
    <path class="cls-1" d="M325.6,0h33.1v10h-21.2v10.6h18v10h-18v12.2h22v10h-33.9V0Z"/>
    <path class="cls-1" d="M370.4,0h11.9v52.9h-11.9V0Z"/>
    <path class="cls-1" d="M394.4,0h33.1v10h-21.2v10.6h18v10h-18v12.2h22v10h-33.9V0Z"/>
  </g>
  <g>
    <path class="cls-1" d="M232.5,179.7h15.1c10.7,0,17.9,3.8,17.9,12.9s-2.8,9.9-7.9,11.5v.3c6.5,1.2,11,5.4,11,12.7,0,10.3-8,15.4-19.9,15.4h-16.3v-52.9ZM246.4,202.5c9.7,0,13.7-3.5,13.7-9.2s-4.6-9.1-13.4-9.1h-8.7v18.4h8.3ZM247.8,228.1c9.6,0,15.4-3.5,15.4-11.1s-5.5-10.2-15.4-10.2h-9.8v21.3h9.8Z"/>
    <path class="cls-1" d="M279.9,179.7h29.8v4.7h-24.3v17.9h20.5v4.7h-20.5v20.9h25.1v4.7h-30.6v-52.9Z"/>
    <path class="cls-1" d="M357.6,232.5l-13.9-23.6c7.6-1.5,12.5-6.4,12.5-14.7s-7.4-14.5-18.1-14.5h-16v52.9h5.5v-23.1h10.2l13.4,23.1h6.3ZM327.8,184.2h9.5c8.7,0,13.5,2.6,13.5,10s-4.8,10.7-13.5,10.7h-9.5v-20.7Z"/>
    <path class="cls-1" d="M367.6,179.7h5.5v48.2h23.6v4.7h-29.1v-52.9Z"/>
    <path class="cls-1" d="M406.4,179.7h5.5v52.9h-5.5v-52.9Z"/>
    <path class="cls-1" d="M427.3,179.7h5.7l20.4,34.8,5.8,10.8h.3c-.3-5.3-.7-10.9-.7-16.3v-29.4h5.2v52.9h-5.7l-20.4-34.9-5.8-10.8h-.3c.3,5.2.7,10.5.7,15.9v29.7h-5.2v-52.9Z"/>
  </g>
</svg>